<?xml version="1.0" encoding="UTF-8"?>
<!-- Generated by Pixelmator Pro 3.3.1 -->
<svg width="800" height="800" viewBox="0 0 800 800" xmlns="http://www.w3.org/2000/svg" xmlns:xlink="http://www.w3.org/1999/xlink">
    <g id="Group">
        <path id="Path" fill="#252f3e" stroke="none" d="M 262.581543 364.893768 C 262.581543 372.650757 263.36908 378.950867 264.865326 383.597229 C 266.519104 388.204193 268.645416 393.244263 271.559204 398.717468 C 272.489014 400.163483 272.993835 401.841644 273.016083 403.560699 C 273.016083 405.647614 271.756073 407.773895 269.078522 409.860809 L 255.848312 418.680969 C 254.260132 419.827484 252.371307 420.484497 250.41449 420.570984 C 248.288177 420.570984 246.201263 419.547211 244.114334 417.657196 C 241.284271 414.611938 238.752655 411.302338 236.55423 407.773895 C 234.211807 403.734467 232.044128 399.596222 230.057236 395.370575 C 213.716324 414.70401 193.201614 424.390442 168.473679 424.390442 C 150.872757 424.390442 136.815643 419.310974 126.577965 409.230774 C 116.300919 399.150635 111.06395 385.684143 111.06395 368.870728 C 111.06395 350.994171 117.364059 336.503937 130.12178 325.557495 C 142.918869 314.611053 159.889786 309.177185 181.467667 309.177185 C 188.555267 309.177185 195.918518 309.80722 203.675537 310.830994 C 211.432556 311.894135 219.425797 313.58725 227.773453 315.477325 L 227.773453 300.120789 C 227.773453 284.134277 224.426514 272.990967 217.929535 266.493958 C 211.235672 259.957581 199.895462 256.807556 183.751434 256.807556 C 176.427567 256.807556 168.90683 257.673828 161.149811 259.563843 C 153.442917 261.39801 145.876709 263.779785 138.508789 266.690857 C 136.130035 267.767883 133.683548 268.688599 131.184921 269.447144 C 130.102203 269.804871 128.976669 270.016724 127.83799 270.077209 C 124.884811 270.077209 123.427917 267.950867 123.427917 263.540771 L 123.427917 253.224304 C 123.427917 249.877441 123.821671 247.317993 124.884811 245.900513 C 126.471542 243.968506 128.496414 242.443176 130.791168 241.45105 C 138.075668 237.670959 146.895813 234.520935 157.172867 232.000854 C 167.410538 229.244568 178.317596 228.023926 189.854675 228.023926 C 214.77948 228.023926 233.010406 233.694031 244.74437 245.034241 C 256.281433 256.374451 262.148407 273.620972 262.148407 296.773834 L 262.148407 364.893768 L 262.542175 364.893768 Z M 177.490707 396.827423 C 184.381454 396.827423 191.508453 395.567413 199.068588 393.047424 C 206.589355 390.527344 213.322571 385.881012 218.953293 379.580933 C 222.329712 375.712708 224.768585 371.11795 226.080292 366.153809 C 227.340317 361.074341 228.206589 355.010498 228.206589 347.844116 L 228.206589 339.023956 C 221.846786 337.48172 215.405243 336.298584 208.912506 335.480164 C 202.38353 334.63559 195.808014 334.201569 189.22467 334.180786 C 175.167542 334.180786 164.890503 336.937042 157.999756 342.607147 C 151.069626 348.277252 147.76207 356.270508 147.76207 366.783813 C 147.76207 376.627747 150.242737 383.990997 155.479721 389.070435 C 160.519791 394.307404 167.843689 396.827423 177.490707 396.827423 Z M 345.74295 419.547211 C 341.962891 419.547211 339.442871 418.917236 337.789093 417.420929 C 336.095947 416.160919 334.639038 413.247101 333.378998 409.230774 L 284.159424 246.727417 C 283.18869 244.003784 282.541107 241.175598 282.230011 238.300964 C 282.230011 234.954041 283.923187 233.064026 287.270111 233.064026 L 307.824188 233.064026 C 311.761749 233.064026 314.518066 233.694031 315.974976 235.15094 C 317.668091 236.411011 318.928101 239.364136 320.188141 243.341064 L 355.390015 382.534088 L 388.071838 243.341064 C 389.095581 239.167236 390.355621 236.411011 392.009399 235.15094 C 394.53595 233.603394 397.479034 232.874451 400.43576 233.064026 L 417.170441 233.064026 C 421.186737 233.064026 423.864288 233.694031 425.557465 235.15094 C 427.25061 236.411011 428.70752 239.364136 429.534424 243.341064 L 462.649353 384.227264 L 498.874969 243.341064 C 499.546783 240.292358 500.998505 237.470337 503.088196 235.15094 C 505.527985 233.604675 508.396088 232.87384 511.27832 233.064026 L 530.769226 233.064026 C 534.116211 233.064026 536.006287 234.757202 536.006287 238.300964 C 536.006287 239.364136 535.77002 240.427246 535.612488 241.687317 C 535.273987 243.474792 534.773132 245.227722 534.116211 246.924255 L 483.597229 409.427673 C 482.337189 413.640869 480.88028 416.397156 479.226532 417.657196 C 476.848724 419.17804 474.051025 419.908478 471.233276 419.74411 L 453.238556 419.74411 C 449.261627 419.74411 446.544708 419.114105 444.851563 417.657196 C 443.158386 416.160919 441.701508 413.44397 440.874603 409.230774 L 408.389679 273.660339 L 376.101593 409.073303 C 375.07785 413.286499 373.81781 416.003357 372.164063 417.460327 C 370.470886 418.956604 367.5177 419.586609 363.777039 419.586609 L 345.74295 419.586609 Z M 614.993835 425.217316 C 604.119873 425.231842 593.282288 423.963043 582.705811 421.437256 C 572.231812 418.917236 564.081055 416.160919 558.607849 413.010864 C 555.260925 411.120819 552.977112 409.033905 552.110901 407.104492 C 551.310425 405.251831 550.895142 403.255737 550.890198 401.237488 L 550.890198 390.527344 C 550.890198 386.117279 552.543945 383.990997 555.694092 383.990997 C 556.97998 383.993835 558.256836 384.206635 559.474121 384.620972 C 560.734131 385.054138 562.624146 385.881012 564.711121 386.747253 C 571.798706 389.897308 579.595093 392.417358 587.74585 394.110535 C 596.132874 395.764313 604.28363 396.630585 612.670654 396.630585 C 625.90094 396.630585 636.13855 394.307404 643.265625 389.70047 C 650.235535 385.481049 654.400879 377.842072 654.172607 369.697632 C 654.315491 364.241882 652.274475 358.954895 648.502502 355.010498 C 644.761841 350.994171 637.634827 347.41098 627.357788 344.064026 L 596.959717 334.613922 C 581.682007 329.770691 570.341797 322.604309 563.45105 313.154144 C 556.705505 304.422272 553.024475 293.711243 552.977112 282.677368 C 552.977112 273.857239 554.867126 266.060791 558.607849 259.327576 C 562.387878 252.633728 567.427979 246.727417 573.728088 242.080994 C 580.028198 237.277222 587.115845 233.694031 595.502869 231.17395 C 603.889893 228.653992 612.670654 227.59082 621.884583 227.59082 C 626.530945 227.59082 631.334717 227.787659 635.94165 228.417725 C 640.745544 229.047668 645.155579 229.914001 649.565674 230.780212 C 653.739502 231.804077 657.755798 232.827759 661.496521 234.127136 C 665.27655 235.387146 668.190369 236.647217 670.31665 237.907227 C 672.789063 239.148804 674.944275 240.940247 676.61676 243.144165 C 677.9646 245.194336 678.61377 247.625244 678.467346 250.07428 L 678.467346 259.957581 C 678.467346 264.367737 676.813599 266.690857 673.663574 266.690857 C 670.874451 266.372375 668.173401 265.516541 665.709717 264.170837 C 653.047729 258.556824 639.316772 255.762207 625.467773 255.980652 C 613.536926 255.980652 604.086731 257.870728 597.589722 261.886963 C 591.092773 265.824585 587.74585 271.967224 587.74585 280.590454 C 587.74585 286.457397 589.832764 291.497528 594.046021 295.513824 C 598.219849 299.490753 605.976807 303.467743 617.080688 307.050873 L 646.848755 316.501099 C 661.929688 321.344269 672.83667 328.077545 679.333679 336.700836 C 685.830688 345.324066 688.941345 355.207336 688.941345 366.153809 C 688.941345 375.210175 687.090759 383.360992 683.507507 390.527344 C 679.797729 397.718323 674.58783 404.029236 668.229736 409.033905 C 661.732788 414.270874 653.975769 418.090332 644.958679 420.807251 C 635.508545 423.760406 625.664612 425.217316 614.993835 425.217316 Z"/>
        <g id="g1">
            <path id="path1" fill="#ff9900" fill-rule="evenodd" stroke="none" d="M 654.566406 527.357788 C 585.658936 578.42804 485.487213 605.557861 399.37265 605.557861 C 278.686218 605.557861 169.930588 560.787781 87.792931 486.367737 C 81.295944 480.461365 87.162918 472.468109 94.880547 477.114441 C 183.751434 528.814758 293.333954 560.157715 406.73587 560.157715 C 483.164093 560.157715 567.191772 544.171204 644.525574 511.371246 C 656.062683 506.134338 665.906616 518.931396 654.566406 527.357788 Z"/>
            <path id="path2" fill="#ff9900" fill-rule="evenodd" stroke="none" d="M 683.271301 494.557861 C 674.490479 483.25705 625.034668 489.124054 602.629822 491.840973 C 595.935974 492.707184 594.872864 486.800873 600.936707 482.390778 C 640.312378 454.630951 705.085388 462.624207 712.60614 471.877502 C 720.166321 481.327667 710.519226 546.297546 673.624268 577.404236 C 667.993469 582.247498 662.559692 579.766846 665.040344 573.466736 C 673.427307 552.597595 692.091431 505.74057 683.271301 494.59726 Z"/>
        </g>
    </g>
</svg>
