<?xml version="1.0" encoding="UTF-8"?>
<!-- Generated by Pixelmator Pro 3.3.1 -->
<svg width="210" height="260" viewBox="0 0 210 260" xmlns="http://www.w3.org/2000/svg" xmlns:xlink="http://www.w3.org/1999/xlink">
    <g id="Group">
        <path id="Path" fill="#d70751" stroke="none" d="M 121.195915 136.076599 C 117.668976 136.12619 121.862831 137.893524 126.467102 138.602325 C 127.739372 137.60965 128.893631 136.605011 129.921371 135.627716 C 127.053642 136.329681 124.137177 136.344223 121.195915 136.076599 M 140.126007 131.356918 C 142.226776 128.459259 143.756409 125.284576 144.296768 122.003876 C 143.825653 124.343201 142.556808 126.363602 141.359787 128.495163 C 134.766754 132.645416 140.739044 126.030151 141.356369 123.515549 C 134.268265 132.438507 140.383362 128.865387 140.126007 131.356918 M 147.114899 113.174973 C 147.539841 106.823898 145.864868 108.831482 145.301422 111.255447 C 145.95636 111.597473 146.478775 115.73317 147.114899 113.174973 M 107.821739 26.363373 C 109.703636 26.701096 111.889053 26.960175 111.582108 27.409912 C 113.640137 26.958466 114.107826 26.542084 107.821739 26.363373"/>
        <path id="path1" fill="#d70751" stroke="none" d="M 111.582108 27.409912 L 110.251701 27.683517 L 111.489769 27.574936 L 111.582108 27.409912"/>
        <path id="path2" fill="#d70751" stroke="none" d="M 170.278168 115.583542 C 170.489365 121.287369 168.610901 124.054214 166.916245 128.953461 L 163.868958 130.476227 C 161.373169 135.32077 164.110077 133.552582 162.323944 137.406158 C 158.428497 140.868118 150.505051 148.239227 147.96907 148.912109 C 146.119675 148.871933 149.225098 146.728409 149.630371 145.887924 C 144.417313 149.468735 145.445908 151.261719 137.474579 153.437729 L 137.241165 152.918732 C 117.574921 162.168304 90.260544 143.836731 90.620506 118.824066 C 90.410172 120.411835 90.023705 120.015106 89.587646 120.657227 C 88.573601 107.787506 95.531731 94.861359 107.265121 89.583328 C 118.745438 83.900894 132.199982 86.233383 140.422684 93.896042 C 135.906494 87.979324 126.917702 81.708633 116.264183 82.295166 C 105.826126 82.46019 96.064407 89.09256 92.805931 96.290939 C 87.459511 99.658005 86.83876 109.267532 84.50885 111.025452 C 81.375206 134.06218 90.405045 144.014587 105.680779 155.721466 C 108.085091 157.34259 106.357956 157.588837 106.683716 158.822617 C 101.60833 156.446533 96.960457 152.858032 93.139389 148.464935 C 95.167488 151.434418 97.355476 154.319244 100.183868 156.586761 C 95.3992 154.964783 89.005379 144.990143 87.139732 144.584015 C 95.388084 159.353577 120.606812 170.486755 133.812561 164.964203 C 127.702606 165.189087 119.939041 165.08905 113.073257 162.551361 C 110.190994 161.068756 106.269028 157.993256 106.96843 157.418686 C 124.991333 164.151947 143.609329 162.51886 159.201431 150.018509 C 163.169556 146.928482 167.502777 141.672699 168.754547 141.600006 C 166.868362 144.436096 169.076874 142.96463 167.627625 145.467255 C 171.582077 139.092255 165.910736 142.872284 171.71376 134.457199 L 173.857269 137.409576 C 173.061249 132.118713 180.429779 125.692429 179.68251 117.323502 C 181.37117 114.763596 181.568665 120.07666 179.773987 125.965179 C 182.263809 119.432846 180.429779 118.383728 181.070206 112.993698 C 181.762756 114.804626 182.666519 116.730133 183.132507 118.641953 C 181.512238 112.330215 184.79808 108.01152 185.610336 104.342651 C 184.809189 103.987808 183.106857 107.133408 182.717819 99.676819 C 182.773392 96.438004 183.619003 97.979614 183.944763 97.182724 C 183.30864 96.817627 181.641357 94.33551 180.627304 89.573074 C 181.36261 88.454712 182.593842 92.474152 183.594208 92.639175 C 182.950394 88.852295 181.842285 85.965759 181.796112 83.061264 C 178.871094 76.948746 180.760681 83.876099 178.38887 80.437225 C 175.275742 70.726791 180.971863 78.182541 181.355774 73.7715 C 186.07547 80.607361 188.766205 91.202744 190 95.590683 C 189.056915 90.23999 187.534988 85.056885 185.675323 80.042206 C 187.109192 80.644989 183.36763 69.033859 187.539261 76.723022 C 183.084625 60.330643 168.470673 45.013016 155.027237 37.825729 C 156.672287 39.330566 158.749969 41.221008 158.003555 41.516846 C 151.318176 37.535889 152.49382 37.226379 151.535339 35.54454 C 146.089737 33.329193 145.731491 35.722397 142.124176 35.547958 C 131.859695 30.103226 129.882034 30.682922 120.434097 27.270538 L 120.863319 29.278976 C 114.063362 27.014053 112.941582 30.138275 105.591003 29.286682 C 105.143829 28.936981 107.944862 28.02211 110.252556 27.686935 C 103.677467 28.554779 103.986137 26.391586 97.552132 27.925491 C 99.138191 26.81311 100.814018 26.07695 102.505241 25.130447 C 97.143433 25.456207 89.704781 28.250397 92.000504 25.70929 C 83.249405 29.61586 67.715454 35.093948 58.999409 43.267059 L 58.724949 41.435608 C 54.730309 46.230545 41.307396 55.755447 40.23777 61.965424 L 39.169853 62.214233 C 37.091309 65.73349 35.746365 69.722153 34.097893 73.343155 C 31.378939 77.974777 30.112658 75.125854 30.499981 75.851761 C 25.153557 86.69252 22.497875 95.801025 20.203011 103.271301 C 21.837801 105.714951 20.242338 117.982727 20.860516 127.800034 C 18.174908 176.287201 54.890194 223.365295 95.022133 234.232559 C 100.904648 236.335052 109.651474 236.253815 117.09269 236.470993 C 108.313377 233.959808 107.178764 235.140594 98.628593 232.158295 C 92.459648 229.252945 91.10701 225.936325 86.737869 222.145187 L 88.466721 225.200165 C 79.89859 222.167419 83.482826 221.44664 76.511871 219.238983 L 78.358704 216.827835 C 75.580757 216.617508 71.002136 212.146622 69.749542 209.670502 L 66.711662 209.790192 C 63.060741 205.285095 61.115578 202.041168 61.257511 199.525711 L 60.275951 201.275925 C 59.16357 199.36496 46.844486 184.381653 53.235741 187.870117 C 52.048122 186.783386 50.469757 186.102783 48.758015 182.993958 L 50.059349 181.50708 C 46.983852 177.550903 44.398285 172.476379 44.594933 170.788589 C 46.235714 173.004791 47.373741 173.417755 48.500652 173.798248 C 40.734535 154.527008 40.298477 172.736313 34.415104 154.182434 L 35.660007 154.083252 C 34.705807 152.645126 34.126965 151.085571 33.360012 149.553375 L 33.901237 144.155655 C 28.308571 137.690018 32.33741 116.666 33.142838 105.135254 C 33.702873 100.44548 37.810375 95.454742 40.935463 87.62706 L 39.031342 87.298737 C 42.670292 80.951935 59.809109 61.807251 67.745384 62.792221 C 71.592102 57.962234 66.982704 62.775131 66.230286 61.558441 C 74.676147 52.817596 77.331833 55.383514 83.031372 53.811127 C 89.178947 50.161926 77.75592 55.233887 80.67067 52.419159 C 91.295967 49.705338 88.201668 46.249359 102.064056 44.871078 C 103.526138 45.703003 98.670494 46.156158 97.451233 47.236053 C 106.304085 42.904541 125.469299 43.889526 137.915771 49.639511 C 152.361298 56.390717 168.587814 76.343399 169.22821 95.117004 L 169.956696 95.312805 C 169.588181 102.77626 171.098984 111.405945 168.480072 119.333664 L 170.275604 115.584412"/>
        <path id="path3" fill="#d70751" stroke="none" d="M 82.698776 140.917709 L 82.204567 143.391266 C 84.521675 146.540298 86.360817 149.951813 89.320885 152.413422 C 87.191887 148.255463 85.609253 146.537735 82.698776 140.917709 M 88.178574 140.703094 C 86.95163 139.346191 86.225716 137.713104 85.412598 136.085999 C 86.189812 138.946045 87.781853 141.403351 89.263596 143.903427 L 88.178574 140.703094 M 185.146927 119.626923 L 184.629639 120.926559 C 183.679718 127.674347 181.62767 134.351181 178.482925 140.541504 C 181.954285 134.010025 184.202988 126.865509 185.143494 119.626923 M 108.518578 24.671295 C 110.903221 23.79747 114.379723 24.192474 116.909721 23.617065 C 113.613625 23.894073 110.332069 24.059097 107.090698 24.476349 L 108.518578 24.671295 M 24.797869 69.189468 C 25.346792 74.277664 20.969959 76.251907 25.767462 72.897675 C 28.338497 67.106644 24.762815 71.298798 24.797869 69.189468 M 19.160742 92.734924 C 20.265425 89.343079 20.4655 87.306427 20.887878 85.343307 C 17.834612 89.247314 19.483084 90.079239 19.160742 92.734924"/>
    </g>
</svg>
