<?xml version="1.0" encoding="UTF-8"?>
<!-- Generated by Pixelmator Pro 3.3.1 -->
<svg width="800" height="800" viewBox="0 0 800 800" xmlns="http://www.w3.org/2000/svg" xmlns:xlink="http://www.w3.org/1999/xlink">
    <g id="Group">
        <path id="Path" fill="#b5010f" stroke="none" d="M 670.94281 136.173523 C 700.402161 165.619141 618.734375 295.051605 604.927917 308.86499 C 591.12146 322.650787 556.054077 309.967285 526.608398 280.514832 C 497.149017 251.069214 484.458649 215.994934 498.265137 202.188416 C 512.064758 188.375061 641.490356 106.714172 670.94281 136.173523"/>
        <path id="path1" fill="#b5010f" stroke="none" d="M 257.836426 167.327698 C 212.861969 141.809143 148.865677 113.4245 128.507294 133.782898 C 107.880226 154.403076 137.305145 219.839233 163.092438 264.896362 C 186.04126 224.999451 218.683578 191.41333 257.836426 167.327698"/>
        <path id="path2" fill="#b5010f" stroke="none" d="M 626.016602 298.7099 C 630.157166 312.757538 629.413147 324.359406 622.695862 331.062866 C 607.008545 346.75708 564.631409 330.05011 526.429321 293.694366 C 523.763123 291.303741 521.117554 288.823486 518.520203 286.219299 C 504.706818 272.399048 493.959229 257.690002 487.083557 244.145325 C 473.704193 220.142395 470.355896 198.943481 480.469604 188.829712 C 485.981232 183.325073 494.799713 181.823181 505.554199 183.759094 C 512.567688 179.322266 520.848816 174.382507 529.929138 169.318787 C 493.008484 150.062683 451.030945 139.184204 406.504272 139.184204 C 258.814728 139.184204 139.082626 258.895691 139.082626 406.598999 C 139.082626 554.27478 258.814728 674 406.504272 674 C 554.193848 674 673.919067 554.27478 673.919067 406.598999 C 673.919067 358.903198 661.40094 314.176758 639.533691 275.402832 C 634.807556 284.028442 630.21228 291.930664 626.016602 298.7099"/>
    </g>
</svg>
