<?xml version="1.0" encoding="UTF-8"?>
<!-- Generated by Pixelmator Pro 3.3.1 -->
<svg width="800" height="800" viewBox="0 0 800 800" xmlns="http://www.w3.org/2000/svg" xmlns:xlink="http://www.w3.org/1999/xlink">
    <path id="Path" fill="#ea1b22" fill-rule="evenodd" stroke="none" d="M 50 400.5 C 50 522.812256 149.099091 622 271.367096 622 L 528.572937 622 C 650.862183 621.95105 749.964478 522.789307 749.940002 400.5 C 749.940002 278.187683 650.840942 179 528.572937 179 L 271.367096 179 C 149.077789 179.04895 49.975529 278.210693 50 400.5 Z M 666.257263 400.5 C 666.280823 438.515991 651.198547 474.983612 624.32959 501.877472 C 597.460693 528.77124 561.00708 543.887329 522.99115 543.899109 L 277.126099 543.899109 C 239.094772 543.910889 202.618347 528.805176 175.730286 501.908752 C 148.842224 475.01239 133.747787 438.531311 133.771301 400.5 C 133.746826 321.351807 197.889297 257.169678 277.037506 257.145203 L 522.946777 257.145203 C 560.96283 257.145203 597.421082 272.250061 624.298279 299.135529 C 651.175476 326.021027 666.269043 362.484009 666.257263 400.5 Z"/>
</svg>
