<?xml version="1.0" encoding="UTF-8"?>
<!-- Generated by Pixelmator Pro 3.3.1 -->
<svg width="256" height="256" viewBox="0 0 256 256" xmlns="http://www.w3.org/2000/svg" xmlns:xlink="http://www.w3.org/1999/xlink">
    <g id="Group">
        <path id="Path" fill="#ffffff" stroke="#ffffff" stroke-width="2.5" d="M 152.590988 52 C 125.919746 52.020477 101.544243 67.092972 89.60894 90.944687 C 70.632645 88.177124 51.700336 96.243546 40.551128 111.846573 C 29.401922 127.449615 27.904457 147.974152 36.670849 165.030243 C 45.437244 182.086319 62.998238 192.815308 82.175285 192.831406 L 152.590988 192.831406 C 191.480499 192.831406 223.006683 161.305222 223.006683 122.41571 C 223.006683 83.526184 191.480499 52 152.590988 52 Z M 152.590988 180.028549 L 82.175285 180.028549 C 60.962822 180.028549 43.76672 162.832458 43.76672 141.619995 C 43.76672 120.407516 60.962822 103.211426 82.175285 103.211426 C 83.055481 103.211426 83.935677 103.211426 84.807877 103.299438 C 83.057266 109.520523 82.171417 115.953003 82.175285 122.41571 C 82.175285 125.951111 85.041298 128.817139 88.576714 128.817139 C 92.112129 128.817139 94.978142 125.951111 94.978142 122.41571 C 94.978142 90.597015 120.772293 64.802856 152.590988 64.802856 C 184.409683 64.802856 210.203842 90.597015 210.203842 122.41571 C 210.203842 154.234406 184.409683 180.028549 152.590988 180.028549 Z M 146.18956 122.41571 L 146.18956 90.408569 C 146.18956 86.873154 149.055573 84.007141 152.590988 84.007141 C 156.126389 84.007141 158.992416 86.873154 158.992416 90.408569 L 158.992416 122.41571 C 158.992416 125.951111 156.126389 128.817139 152.590988 128.817139 C 149.055573 128.817139 146.18956 125.951111 146.18956 122.41571 Z M 162.19313 151.222137 C 162.19313 156.525238 157.894104 160.824265 152.590988 160.824265 C 147.287872 160.824265 142.988846 156.525238 142.988846 151.222137 C 142.988846 145.919006 147.287872 141.619995 152.590988 141.619995 C 157.894104 141.619995 162.19313 145.919006 162.19313 151.222137 Z"/>
    </g>
</svg>
